<?xml version="1.0" encoding="UTF-8" standalone="no"?>
<!DOCTYPE svg PUBLIC "-//W3C//DTD SVG 1.1//EN" "http://www.w3.org/Graphics/SVG/1.1/DTD/svg11.dtd">
<svg width="100%" height="100%" viewBox="0 0 3508 2481" version="1.1" xmlns="http://www.w3.org/2000/svg" xmlns:xlink="http://www.w3.org/1999/xlink" xml:space="preserve" xmlns:serif="http://www.serif.com/" style="fill-rule:evenodd;clip-rule:evenodd;stroke-linecap:round;stroke-linejoin:round;stroke-miterlimit:1.5;">
    <g transform="matrix(1,0,0,1,752.555,378.087)">
        <path d="M840.363,944.339L840.217,944.882L745.729,944.882L783.706,803.15L508.955,803.15L387.681,944.748L281.382,944.748L681.676,472.462C588.631,472.458 487.123,472.441 487.123,472.441L512.441,377.953L897.637,377.953C945.26,377.953 979.43,424.819 966.808,472.441C962.782,487.627 965.2,478.441 965.2,478.441L954.149,519.685L928.593,615.059C932.896,614.477 937.195,614.173 941.464,614.173L1322.21,614.173L1296.89,708.661L958.941,708.661C933.661,708.661 911.341,709.989 899.038,755.906L873.72,850.394L1204.43,850.394C1248.11,850.394 1284.11,898.417 1274.24,942.279L1274.3,942.282L1273.6,944.882L1248.28,1039.37L1235.62,1086.61C1222.28,1136.42 1161.17,1181.1 1111.37,1181.1L681.82,1181.1L707.138,1086.61L1093.89,1086.61C1126.13,1086.61 1140.61,1088.57 1153.79,1039.37L1179.11,944.882C1025.39,944.304 920.997,944.882 848.402,944.882C845.69,944.882 843.007,944.697 840.363,944.339ZM792.182,472.458L589.996,708.527L809.06,708.527L859.66,519.685C865.324,498.549 857.946,472.401 829.8,472.441C823.936,472.449 810.501,472.455 792.182,472.458ZM49.008,1179.13L48.48,1179.12L72.822,1090.26L73.798,1086.61L73.82,1086.61L319.704,188.976L332.363,141.732L1057.87,141.732L1032.55,236.22L407.969,236.22L174.144,1086.61L610.279,1086.61L584.961,1181.1L48.48,1181.1L49.008,1179.13ZM1306.7,1417.17L1306.69,1417.19L617.259,1417.19L642.577,1322.7L1233.41,1322.7L1466.32,472.441L1064.65,472.441L1089.96,377.953L1492.2,377.953L1492.24,377.819L1593.51,377.953L1307.76,1417.19L1306.7,1417.17Z" style="fill:white;stroke:black;stroke-width:1px;"/>
    </g>
</svg>
