<?xml version="1.0" encoding="UTF-8" standalone="no"?>
<!DOCTYPE svg PUBLIC "-//W3C//DTD SVG 1.1//EN" "http://www.w3.org/Graphics/SVG/1.1/DTD/svg11.dtd">
<svg width="100%" height="100%" viewBox="0 0 3508 2481" version="1.1" xmlns="http://www.w3.org/2000/svg" xmlns:xlink="http://www.w3.org/1999/xlink" xml:space="preserve" xmlns:serif="http://www.serif.com/" style="fill-rule:evenodd;clip-rule:evenodd;stroke-linecap:round;stroke-linejoin:round;stroke-miterlimit:1.5;">
    <g transform="matrix(-1,0,-0.267949,1,2624.82,259.977)">
        <path d="M1127.67,944.882L1196.4,1062.86L1363.7,1062.86L1065.57,543.133C1153.86,543.092 1238.69,543.044 1238.69,543.044L1237.26,401.441L791.146,401.441C743.524,401.441 696.796,448.307 696.658,495.929C696.639,502.46 696.638,577.672 696.642,661.283L330.874,661.283L330.874,803.15L647.228,803.15C672.508,803.15 695.809,805.815 695.809,851.731L696.66,851.869C696.663,879.898 696.665,897.638 696.665,897.638L698.004,897.217L698.657,920.85C608.946,920.168 431.777,918.875 378.324,918.875C334.995,918.875 286.552,966.138 283.945,1009.71L283.835,1009.71L283.835,1157.48L283.835,1229.81C283.835,1286.62 305.45,1322.7 357.015,1322.7L853.078,1322.7L851.041,1180.97L472.139,1180.97C444.474,1180.97 429.503,1182.41 425.809,1151.74L425.809,1062.85C559.547,1062.53 674.013,1062.99 739.032,1062.99C741.723,1062.99 744.456,1062.72 747.217,1062.21L747.217,1062.86L851.836,1062.86L850.08,944.882L1127.67,944.882ZM893.673,543.19L1045.03,803.015L847.968,803.015L847.413,765.735C847.531,684.005 847.691,571.743 847.691,566.661C847.691,545.525 844.837,543.142 872.973,543.182C876.739,543.187 883.895,543.19 893.673,543.19ZM1488.05,1322.7C1526.11,1322.7 1565.3,1291.8 1575.5,1253.73C1577.01,1248.07 1577.8,1242.56 1577.92,1237.29C1577.95,1236.08 1577.94,1234.88 1577.9,1233.7L1577.9,1233.41L1577.9,1180.97L1572.12,283.33L1572.27,283.33L1572.27,192.386L1572.09,192.217C1572.09,191.802 1572.08,191.388 1572.07,190.976C1571.27,162.441 1550.42,141.598 1519.16,141.598L693.592,141.598L693.592,283.33L1431.35,283.33L1437.65,1180.97L994.81,1180.97L994.81,1322.7L1488.05,1322.7ZM64.878,1582.54L854.319,1582.54L854.319,1440.81L154.236,1440.81L148.778,543.173L550.889,543.173L550.89,401.441L95.275,401.441C57.21,401.441 18.026,432.344 7.827,470.409C6.024,477.137 5.247,483.642 5.399,489.791L5.162,490.023L11.903,1451.4L11.903,1529.39L11.975,1529.47C11.009,1559.88 32.282,1582.54 64.878,1582.54Z" style="stroke:black;stroke-width:0.88px;"/>
    </g>
</svg>
