<svg width="234" height="46" viewBox="0 0 234 46" fill="none" xmlns="http://www.w3.org/2000/svg">
<path d="M1.93447 26.425H14.2195C14.4295 27.055 15.0445 27.595 16.0645 28.045C17.0845 28.465 18.4495 28.795 20.1595 29.035C21.8995 29.245 23.9095 29.35 26.1895 29.35C28.4395 29.35 30.2095 29.29 31.4995 29.17C32.8195 29.02 33.7495 28.78 34.2895 28.45C34.8295 28.09 35.0995 27.61 35.0995 27.01C35.0995 26.44 34.6645 26.005 33.7945 25.705C32.9245 25.375 31.3795 25.15 29.1595 25.03C26.9395 24.91 23.8195 24.85 19.7995 24.85C16.7995 24.85 14.2045 24.715 12.0145 24.445C9.85447 24.145 8.06947 23.695 6.65947 23.095C5.27947 22.465 4.25947 21.685 3.59947 20.755C2.93947 19.795 2.60947 18.655 2.60947 17.335C2.60947 15.055 3.37447 13.18 4.90447 11.71C6.46447 10.21 8.80447 9.1 11.9245 8.38C15.0745 7.63 19.0045 7.255 23.7145 7.255C30.6145 7.255 35.8795 8.26 39.5095 10.27C43.1695 12.25 44.9995 15.115 44.9995 18.865H33.3445C33.1945 17.875 32.2645 17.125 30.5545 16.615C28.8445 16.075 26.4145 15.805 23.2645 15.805C20.1445 15.805 17.8195 15.985 16.2895 16.345C14.7895 16.705 14.0395 17.32 14.0395 18.19C14.0395 18.64 14.2495 19 14.6695 19.27C15.0895 19.54 15.8095 19.765 16.8295 19.945C17.8795 20.095 19.3495 20.2 21.2395 20.26C23.1295 20.32 25.5295 20.35 28.4395 20.35C31.6495 20.35 34.3795 20.515 36.6295 20.845C38.8795 21.145 40.6945 21.61 42.0745 22.24C43.4845 22.87 44.5045 23.68 45.1345 24.67C45.7645 25.63 46.0795 26.77 46.0795 28.09C46.0795 30.37 45.3595 32.23 43.9195 33.67C42.4795 35.11 40.1995 36.175 37.0795 36.865C33.9595 37.555 29.8795 37.9 24.8395 37.9C21.9895 37.9 19.3645 37.735 16.9645 37.405C14.5945 37.075 12.4795 36.595 10.6195 35.965C8.75947 35.305 7.18447 34.51 5.89447 33.58C4.60447 32.62 3.61447 31.555 2.92447 30.385C2.26447 29.185 1.93447 27.865 1.93447 26.425ZM66.6744 37.63C63.4344 37.63 60.5544 37.18 58.0344 36.28C55.5144 35.35 53.5194 34.015 52.0494 32.275C50.6094 30.535 49.8894 28.435 49.8894 25.975C49.8894 23.395 50.6094 21.235 52.0494 19.495C53.5194 17.755 55.5144 16.45 58.0344 15.58C60.5544 14.71 63.4344 14.275 66.6744 14.275C70.2744 14.275 73.3794 14.77 75.9894 15.76C78.6294 16.72 80.6544 18.085 82.0644 19.855C83.5044 21.595 84.2244 23.635 84.2244 25.975C84.2244 27.715 83.8194 29.305 83.0094 30.745C82.1994 32.155 81.0294 33.385 79.4994 34.435C77.9694 35.455 76.1244 36.25 73.9644 36.82C71.8044 37.36 69.3744 37.63 66.6744 37.63ZM70.7244 30.79C73.0044 30.79 75.0894 30.655 76.9794 30.385C78.8994 30.085 80.4294 29.59 81.5694 28.9C82.7394 28.21 83.3244 27.235 83.3244 25.975C83.3244 24.685 82.7394 23.695 81.5694 23.005C80.4294 22.315 78.8994 21.835 76.9794 21.565C75.0894 21.295 73.0044 21.16 70.7244 21.16C67.6644 21.16 65.2944 21.565 63.6144 22.375C61.9344 23.155 61.0944 24.355 61.0944 25.975C61.0944 27.025 61.4694 27.91 62.2194 28.63C62.9694 29.35 64.0644 29.89 65.5044 30.25C66.9444 30.61 68.6844 30.79 70.7244 30.79ZM83.3244 14.95H94.1244V37H83.9544C83.9544 37 83.8944 36.655 83.7744 35.965C83.6844 35.275 83.5794 34.285 83.4594 32.995C83.3694 31.705 83.3244 30.19 83.3244 28.45V14.95ZM96.8458 14.95H108.321L121.461 36.1L112.146 37L96.8458 14.95ZM138.246 14.95L116.331 46H105.306L114.711 33.265L126.771 14.95H138.246ZM185.822 37V28.81C185.822 27.46 185.552 26.32 185.012 25.39C184.472 24.46 183.512 23.77 182.132 23.32C180.782 22.84 178.862 22.6 176.372 22.6C174.962 22.6 173.582 22.735 172.232 23.005C170.912 23.245 169.712 23.545 168.632 23.905C167.582 24.265 166.742 24.625 166.112 24.985L166.022 22.825C166.142 22.375 166.547 21.7 167.237 20.8C167.957 19.87 168.992 18.91 170.342 17.92C171.692 16.9 173.387 16.045 175.427 15.355C177.497 14.635 179.942 14.275 182.762 14.275C184.532 14.275 186.242 14.44 187.892 14.77C189.542 15.1 191.012 15.655 192.302 16.435C193.622 17.185 194.672 18.205 195.452 19.495C196.232 20.785 196.622 22.39 196.622 24.31V37H185.822ZM155.762 37V5.95H166.562V37H155.762ZM212.994 3.385V10.135H201.564V3.385H212.994ZM201.879 14.95H212.679V37H201.879V14.95ZM219.171 5.95H230.421V27.82H219.171V5.95ZM230.511 30.205V37H219.081V30.205H230.511Z" fill="#00BC8F"/>
</svg>
